<?xml version="1.0" encoding="UTF-8" standalone="no"?>
<!-- Created with Inkscape (http://www.inkscape.org/) -->

<svg
   width="150.60806"
   height="84.771843"
   viewBox="0 0 150.60806 84.771843"
   version="1.1"
   id="svg5"
   xmlns="http://www.w3.org/2000/svg"
   xmlns:svg="http://www.w3.org/2000/svg">
  <defs
     id="defs2" />
  <g
     id="layer1"
     transform="translate(76.956323,-149.69335)">
    <rect
       style="fill:#ffffff;stroke-width:0.264505"
       id="rect682"
       width="150.60806"
       height="84.771843"
       x="-76.956322"
       y="149.69336" />
    <g
       transform="matrix(0.26458333,0,0,0.26458333,-91.1489,96.035528)"
       id="g57">
      <g
         id="g15">
        <g
           id="g13">
          <g
             id="g11">
            <path
               d="M 111.942,472.854 H 236.178 V 433.686 H 111.942 Z m 15.606,-23.256 h 93.024 v 7.65 H 127.548 Z M 251.784,416.856 V 230.502 H 181.71 v -8.262 h -15.3 v 8.262 H 96.336 V 416.856 L 73.08,463.674 v 33.354 h 23.256 v 6.732 h 23.256 v -6.732 h 108.936 v 6.732 h 23.256 v -6.732 H 275.04 V 463.674 Z M 111.942,246.414 H 236.178 V 410.736 H 218.43 l -7.65,-23.868 h -73.44 l -7.65,23.868 h -17.748 z m 90.27,164.322 h -56.304 l 2.754,-8.262 h 50.796 z m 57.222,70.686 H 88.686 v -14.076 l 20.196,-41.004 h 130.356 l 20.196,41.004 z"
               stroke="#ffffff"
               stroke-width="1.08225"
               id="path9" />
          </g>
        </g>
      </g>
      <path
         d="m 117,266.667 c 0,-4.787 3.88,-8.667 8.667,-8.667 h 97.666 c 4.787,0 8.667,3.88 8.667,8.667 v 34.666 c 0,4.787 -3.88,8.667 -8.667,8.667 H 125.667 C 120.88,310 117,306.12 117,301.333 Z"
         fill="#d9d9d9"
         fill-rule="evenodd"
         id="path17" />
      <text
         fill="#375c90"
         font-family="'Bahnschrift Light SemiCondensed', 'Bahnschrift Light SemiCondensed_MSFontService', sans-serif"
         font-weight="300"
         font-stretch="semi-condensed"
         font-size="16px"
         transform="translate(124.693,297)"
         id="text19">210263</text>
      <text
         font-family="'Bahnschrift SemiBold SemiCondensed', 'Bahnschrift SemiBold SemiCondensed_MSFontService', sans-serif"
         font-weight="600"
         font-stretch="semi-condensed"
         font-size="11px"
         transform="translate(125.74,277)"
         id="text21">Serial Number</text>
      <path
         d="m 116,331.667 c 0,-4.787 3.88,-8.667 8.667,-8.667 h 98.666 c 4.787,0 8.667,3.88 8.667,8.667 v 34.666 c 0,4.787 -3.88,8.667 -8.667,8.667 H 124.667 C 119.88,375 116,371.12 116,366.333 Z"
         fill="#d9d9d9"
         fill-rule="evenodd"
         id="path23" />
      <text
         font-family="'Bahnschrift Light SemiCondensed', 'Bahnschrift Light SemiCondensed_MSFontService', sans-serif"
         font-weight="300"
         font-stretch="semi-condensed"
         font-size="16px"
         transform="translate(124.673,363)"
         id="text25">A12C3</text>
      <text
         font-family="'Bahnschrift SemiBold SemiCondensed', 'Bahnschrift SemiBold SemiCondensed_MSFontService', sans-serif"
         font-weight="600"
         font-stretch="semi-condensed"
         font-size="11px"
         transform="translate(124.782,343)"
         id="text27">Asset Tag</text>
      <g
         id="g35">
        <g
           id="g33">
          <g
             id="g31">
            <path
               d="m 381.75,336.469 v 60.062 h 77.5 v -60.062 z m 66.844,5.812 c 1.07,0 1.937,0.868 1.937,1.938 0,1.07 -0.867,1.937 -1.937,1.937 -1.07,0 -1.938,-0.867 -1.938,-1.937 0,-1.07 0.868,-1.938 1.938,-1.938 z m -6.782,0 c 1.071,0 1.938,0.868 1.938,1.938 0,1.07 -0.867,1.937 -1.938,1.937 -1.07,0 -1.937,-0.867 -1.937,-1.937 0,-1.07 0.867,-1.938 1.937,-1.938 z m -6.781,0 c 1.07,0 1.938,0.868 1.938,1.938 0,1.07 -0.868,1.937 -1.938,1.937 -1.07,0 -1.937,-0.867 -1.937,-1.937 0,-1.07 0.867,-1.938 1.937,-1.938 z m 18.407,48.438 h -65.876 v -38.75 h 65.876 z"
               id="path29" />
          </g>
        </g>
      </g>
      <g
         id="g43">
        <g
           id="g41">
          <g
             id="g39">
            <path
               d="m 381.75,260.469 v 60.062 h 77.5 v -60.062 z m 66.844,5.812 c 1.07,0 1.937,0.868 1.937,1.938 0,1.07 -0.867,1.937 -1.937,1.937 -1.07,0 -1.938,-0.867 -1.938,-1.937 0,-1.07 0.868,-1.938 1.938,-1.938 z m -6.782,0 c 1.071,0 1.938,0.868 1.938,1.938 0,1.07 -0.867,1.937 -1.938,1.937 -1.07,0 -1.937,-0.867 -1.937,-1.937 0,-1.07 0.867,-1.938 1.937,-1.938 z m -6.781,0 c 1.07,0 1.938,0.868 1.938,1.938 0,1.07 -0.868,1.937 -1.938,1.937 -1.07,0 -1.937,-0.867 -1.937,-1.937 0,-1.07 0.867,-1.938 1.937,-1.938 z m 18.407,48.438 h -65.876 v -38.75 h 65.876 z"
               id="path37" />
          </g>
        </g>
      </g>
      <text
         font-family="'Bahnschrift Light SemiCondensed', 'Bahnschrift Light SemiCondensed_MSFontService', sans-serif"
         font-weight="300"
         font-stretch="semi-condensed"
         font-size="24px"
         transform="translate(476.717,285)"
         id="text45">Calibration</text>
      <text
         font-family="'Bahnschrift Light SemiCondensed', 'Bahnschrift Light SemiCondensed_MSFontService', sans-serif"
         font-weight="300"
         font-stretch="semi-condensed"
         font-size="24px"
         transform="translate(476.717,314)"
         id="text47">Software</text>
      <text
         font-family="'Bahnschrift Light SemiCondensed', 'Bahnschrift Light SemiCondensed_MSFontService', sans-serif"
         font-weight="300"
         font-stretch="semi-condensed"
         font-size="24px"
         transform="translate(477.91,375)"
         id="text49">ERP</text>
      <path
         d="m 267,288 h 93.612"
         stroke="#d86434"
         stroke-width="8"
         stroke-linecap="round"
         stroke-miterlimit="8"
         fill="none"
         fill-rule="evenodd"
         id="path51" />
      <text
         font-family="'Bahnschrift SemiBold SemiCondensed', 'Bahnschrift SemiBold SemiCondensed_MSFontService', sans-serif"
         font-weight="600"
         font-stretch="semi-condensed"
         font-size="24px"
         transform="translate(409.88,419)"
         id="text53">. . .</text>
      <path
         d="m 266,358 h 94.453"
         stroke="#d86434"
         stroke-width="8"
         stroke-linecap="round"
         stroke-miterlimit="8"
         fill="none"
         fill-rule="evenodd"
         id="path55" />
    </g>
  </g>
</svg>
