<?xml version="1.0" encoding="UTF-8" standalone="no"?>
<svg
   width="290"
   height="250"
   viewBox="0 0 29 25"
   version="1.1"
   xml:space="preserve"
   style="fill-rule:evenodd;clip-rule:evenodd;"
   id="svg28"
   sodipodi:docname="pac-id-example.svg"
   inkscape:version="1.1.1 (3bf5ae0d25, 2021-09-20)"
   xmlns:inkscape="http://www.inkscape.org/namespaces/inkscape"
   xmlns:sodipodi="http://sodipodi.sourceforge.net/DTD/sodipodi-0.dtd"
   xmlns="http://www.w3.org/2000/svg"
   xmlns:svg="http://www.w3.org/2000/svg"><defs
     id="defs32" /><sodipodi:namedview
     id="namedview30"
     pagecolor="#ffffff"
     bordercolor="#666666"
     borderopacity="1.0"
     inkscape:pageshadow="2"
     inkscape:pageopacity="0.0"
     inkscape:pagecheckerboard="0"
     showgrid="false"
     inkscape:zoom="2.876"
     inkscape:cx="145.1669"
     inkscape:cy="125"
     inkscape:window-width="1344"
     inkscape:window-height="1051"
     inkscape:window-x="2683"
     inkscape:window-y="153"
     inkscape:window-maximized="0"
     inkscape:current-layer="svg28" /><rect
     style="fill:#ffffff;stroke-width:0.0994278"
     id="rect56"
     width="29"
     height="25"
     x="0"
     y="0" /><path
     d="M3,3.375l5.25,0m1.5,0l3,0m0.75,0l2.25,0m0.75,0l5.25,0m-18.75,0.75l0.75,0m3.75,0l0.75,0m8.25,0l0.75,0m3.75,0l0.75,0m-18.75,0.75l0.75,0m0.75,0l2.25,0m0.75,0l0.75,0m1.5,0l0.75,0m1.5,0l0.75,0m0.75,0l2.25,0m0.75,0l0.75,0m0.75,0l2.25,0m0.75,0l0.75,0m-18.75,0.75l0.75,0m0.75,0l2.25,0m0.75,0l0.75,0m0.75,0l0.75,0m0.75,0l0.75,0m3.75,0l0.75,0m0.75,0l0.75,0m0.75,0l2.25,0m0.75,0l0.75,0m-18.75,0.75l0.75,0m0.75,0l2.25,0m0.75,0l0.75,0m0.75,0l0.75,0m2.25,0l1.5,0m3,0l0.75,0m0.75,0l2.25,0m0.75,0l0.75,0m-18.75,0.75l0.75,0m3.75,0l0.75,0m1.5,0l1.5,0m1.5,0l0.75,0m0.75,0l1.5,0m0.75,0l0.75,0m3.75,0l0.75,0m-18.75,0.75l5.25,0m0.75,0l0.75,0m0.75,0l0.75,0m0.75,0l0.75,0m0.75,0l0.75,0m0.75,0l0.75,0m0.75,0l5.25,0m-12,0.75l0.75,0m1.5,0l1.5,0m-10.5,0.75l1.5,0m2.25,0l2.25,0m0.75,0l1.5,0m1.5,0l3,0m2.25,0l1.5,0m-16.5,0.75l0.75,0m1.5,0l2.25,0m0.75,0l1.5,0m0.75,0l0.75,0m0.75,0l0.75,0m2.25,0l1.5,0m2.25,0l1.5,0m-15,0.75l0.75,0m1.5,0l0.75,0m1.5,0l0.75,0m1.5,0l2.25,0m0.75,0l0.75,0m0.75,0l2.25,0m1.5,0l1.5,0m-18,0.75l3.75,0m3,0l0.75,0m0.75,0l0.75,0m2.25,0l0.75,0m1.5,0l2.25,0m-16.5,0.75l0.75,0m3,0l1.5,0m1.5,0l6.75,0m0.75,0l3.75,0m-18,0.75l1.5,0m0.75,0l0.75,0m0.75,0l0.75,0m0.75,0l1.5,0m0.75,0l0.75,0m2.25,0l0.75,0m0.75,0l4.5,0m-16.5,0.75l0.75,0m0.75,0l0.75,0m0.75,0l0.75,0m0.75,0l1.5,0m2.25,0l1.5,0m0.75,0l2.25,0m3,0l1.5,0m-17.25,0.75l0.75,0m0.75,0l0.75,0m3.75,0l1.5,0m0.75,0l0.75,0m3,0l1.5,0m3,0l2.25,0m-18.75,0.75l0.75,0m3,0l2.25,0m0.75,0l1.5,0m3,0l4.5,0m0.75,0l0.75,0m0.75,0l0.75,0m-12.75,0.75l1.5,0m1.5,0l0.75,0m0.75,0l2.25,0m2.25,0l3,0m-18,0.75l5.25,0m0.75,0l4.5,0m0.75,0l1.5,0m0.75,0l0.75,0m0.75,0l0.75,0m0.75,0l2.25,0m-18.75,0.75l0.75,0m3.75,0l0.75,0m0.75,0l0.75,0m1.5,0l1.5,0m0.75,0l0.75,0m0.75,0l0.75,0m2.25,0l3.75,0m-18.75,0.75l0.75,0m0.75,0l2.25,0m0.75,0l0.75,0m2.25,0l0.75,0m1.5,0l1.5,0m0.75,0l3.75,0m1.5,0l1.5,0m-18.75,0.75l0.75,0m0.75,0l2.25,0m0.75,0l0.75,0m3,0l2.25,0m2.25,0l1.5,0m0.75,0l3.75,0m-18.75,0.75l0.75,0m0.75,0l2.25,0m0.75,0l0.75,0m2.25,0l2.25,0m3.75,0l1.5,0m0.75,0l0.75,0m1.5,0l0.75,0m-18.75,0.75l0.75,0m3.75,0l0.75,0m0.75,0l0.75,0m2.25,0l0.75,0m0.75,0l6,0m-16.5,0.75l5.25,0m0.75,0l3,0m0.75,0l3,0m0.75,0l0.75,0m1.5,0l0.75,0m0.75,0l1.5,0"
     style="fill-rule:nonzero;stroke:#000;stroke-width:0.75px;"
     id="path2" /><rect
     x="24.75"
     y="8.25"
     width="0.75"
     height="3"
     id="rect4" /><rect
     x="27.75"
     y="8.25"
     width="0.75"
     height="3"
     id="rect6" /><rect
     x="25.5"
     y="7.5"
     width="2.25"
     height="0.75"
     id="rect8" /><rect
     x="24.75"
     y="9"
     width="3.75"
     height="0.75"
     id="rect10" /><rect
     x="25.5"
     y="12"
     width="3"
     height="0.75"
     id="rect12" /><rect
     x="25.5"
     y="15"
     width="3"
     height="0.75"
     id="rect14" /><rect
     x="24.75"
     y="12.75"
     width="0.75"
     height="2.25"
     id="rect16" /><rect
     x="24.75"
     y="3"
     width="0.75"
     height="3.75"
     id="rect18" /><rect
     x="24.75"
     y="4.5"
     width="3"
     height="0.75"
     id="rect20" /><rect
     x="27.75"
     y="3.75"
     width="0.75"
     height="0.75"
     id="rect22" /><rect
     x="24.75"
     y="3"
     width="3"
     height="0.75"
     id="rect24" /><rect
     x="26.25"
     y="18"
     width="0.75"
     height="0.75"
     id="rect26" /></svg>
