<?xml version="1.0" encoding="UTF-8" standalone="no"?><!DOCTYPE svg PUBLIC "-//W3C//DTD SVG 1.1//EN" "http://www.w3.org/Graphics/SVG/1.1/DTD/svg11.dtd"><svg width="290" height="250" viewBox="0 0 29 25" version="1.1" xmlns="http://www.w3.org/2000/svg" xmlns:xlink="http://www.w3.org/1999/xlink" xml:space="preserve" xmlns:serif="http://www.serif.com/" style="fill-rule:evenodd;clip-rule:evenodd;"><path d="M3,3.375l5.25,0m1.5,0l3,0m0.75,0l2.25,0m0.75,0l5.25,0m-18.75,0.75l0.75,0m3.75,0l0.75,0m8.25,0l0.75,0m3.75,0l0.75,0m-18.75,0.75l0.75,0m0.75,0l2.25,0m0.75,0l0.75,0m1.5,0l0.75,0m1.5,0l0.75,0m0.75,0l2.25,0m0.75,0l0.75,0m0.75,0l2.25,0m0.75,0l0.75,0m-18.75,0.75l0.75,0m0.75,0l2.25,0m0.75,0l0.75,0m0.75,0l0.75,0m0.75,0l0.75,0m3.75,0l0.75,0m0.75,0l0.75,0m0.75,0l2.25,0m0.75,0l0.75,0m-18.75,0.75l0.75,0m0.75,0l2.25,0m0.75,0l0.75,0m0.75,0l0.75,0m2.25,0l1.5,0m3,0l0.75,0m0.75,0l2.25,0m0.75,0l0.75,0m-18.75,0.75l0.75,0m3.75,0l0.75,0m1.5,0l1.5,0m1.5,0l0.75,0m0.75,0l1.5,0m0.75,0l0.75,0m3.75,0l0.75,0m-18.75,0.75l5.25,0m0.75,0l0.75,0m0.75,0l0.75,0m0.75,0l0.75,0m0.75,0l0.75,0m0.75,0l0.75,0m0.75,0l5.25,0m-12,0.75l0.75,0m1.5,0l1.5,0m-10.5,0.75l1.5,0m2.25,0l2.25,0m0.75,0l1.5,0m1.5,0l3,0m2.25,0l1.5,0m-16.5,0.75l0.75,0m1.5,0l2.25,0m0.75,0l1.5,0m0.75,0l0.75,0m0.75,0l0.75,0m2.25,0l1.5,0m2.25,0l1.5,0m-15,0.75l0.75,0m1.5,0l0.75,0m1.5,0l0.75,0m1.5,0l2.25,0m0.75,0l0.75,0m0.75,0l2.25,0m1.5,0l1.5,0m-18,0.75l3.75,0m3,0l0.75,0m0.75,0l0.75,0m2.25,0l0.75,0m1.5,0l2.25,0m-16.5,0.75l0.75,0m3,0l1.5,0m1.5,0l6.75,0m0.75,0l3.75,0m-18,0.75l1.5,0m0.75,0l0.75,0m0.75,0l0.75,0m0.75,0l1.5,0m0.75,0l0.75,0m2.25,0l0.75,0m0.75,0l4.5,0m-16.5,0.75l0.75,0m0.75,0l0.75,0m0.75,0l0.75,0m0.75,0l1.5,0m2.25,0l1.5,0m0.75,0l2.25,0m3,0l1.5,0m-17.25,0.75l0.75,0m0.75,0l0.75,0m3.75,0l1.5,0m0.75,0l0.75,0m3,0l1.5,0m3,0l2.25,0m-18.75,0.75l0.75,0m3,0l2.25,0m0.75,0l1.5,0m3,0l4.5,0m0.75,0l0.75,0m0.75,0l0.75,0m-12.75,0.75l1.5,0m1.5,0l0.75,0m0.75,0l2.25,0m2.25,0l3,0m-18,0.75l5.25,0m0.75,0l4.5,0m0.75,0l1.5,0m0.75,0l0.75,0m0.75,0l0.75,0m0.75,0l2.25,0m-18.75,0.75l0.75,0m3.75,0l0.75,0m0.75,0l0.75,0m1.5,0l1.5,0m0.75,0l0.75,0m0.75,0l0.75,0m2.25,0l3.75,0m-18.75,0.75l0.75,0m0.75,0l2.25,0m0.75,0l0.75,0m2.25,0l0.75,0m1.5,0l1.5,0m0.75,0l3.75,0m1.5,0l1.5,0m-18.75,0.75l0.75,0m0.75,0l2.25,0m0.75,0l0.75,0m3,0l2.25,0m2.25,0l1.5,0m0.75,0l3.75,0m-18.75,0.75l0.75,0m0.75,0l2.25,0m0.75,0l0.75,0m2.25,0l2.25,0m3.75,0l1.5,0m0.75,0l0.75,0m1.5,0l0.75,0m-18.75,0.75l0.75,0m3.75,0l0.75,0m0.75,0l0.75,0m2.25,0l0.75,0m0.75,0l6,0m-16.5,0.75l5.25,0m0.75,0l3,0m0.75,0l3,0m0.75,0l0.75,0m1.5,0l0.75,0m0.75,0l1.5,0" style="fill-rule:nonzero;stroke:#000;stroke-width:0.75px;"/><rect x="24.75" y="8.25" width="0.75" height="3"/><rect x="27.75" y="8.25" width="0.75" height="3"/><rect x="25.5" y="7.5" width="2.25" height="0.75"/><rect x="24.75" y="9" width="3.75" height="0.75"/><rect x="25.5" y="12" width="3" height="0.75"/><rect x="25.5" y="15" width="3" height="0.75"/><rect x="24.75" y="12.75" width="0.75" height="2.25"/><rect x="24.75" y="3" width="0.75" height="3.75"/><rect x="24.75" y="4.5" width="3" height="0.75"/><rect x="27.75" y="3.75" width="0.75" height="0.75"/><rect x="24.75" y="3" width="3" height="0.75"/><rect x="26.25" y="18" width="0.75" height="0.75"/></svg>
