<?xml version="1.0" encoding="UTF-8" standalone="no"?>
<svg
   width="662.5"
   height="325"
   viewBox="0 0 66.25 32.5"
   version="1.1"
   xml:space="preserve"
   style="clip-rule:evenodd;fill-rule:evenodd"
   id="svg42"
   xmlns="http://www.w3.org/2000/svg"
   xmlns:svg="http://www.w3.org/2000/svg"><defs
     id="defs46" /><rect
     style="fill:#ffffff;stroke-width:0.100212"
     id="rect70"
     width="66.25"
     height="32.5"
     x="0"
     y="0" /><path
     d="m 5,5.375 h 5.25 m 1.5,0 h 3 m 0.75,0 h 2.25 m 0.75,0 h 5.25 M 5,6.125 h 0.75 m 3.75,0 h 0.75 m 8.25,0 h 0.75 m 3.75,0 h 0.75 M 5,6.875 h 0.75 m 0.75,0 h 2.25 m 0.75,0 h 0.75 m 1.5,0 h 0.75 m 1.5,0 h 0.75 m 0.75,0 h 2.25 m 0.75,0 h 0.75 m 0.75,0 h 2.25 m 0.75,0 h 0.75 M 5,7.625 h 0.75 m 0.75,0 h 2.25 m 0.75,0 h 0.75 m 0.75,0 h 0.75 m 0.75,0 h 0.75 m 3.75,0 h 0.75 m 0.75,0 h 0.75 m 0.75,0 h 2.25 m 0.75,0 h 0.75 M 5,8.375 h 0.75 m 0.75,0 h 2.25 m 0.75,0 h 0.75 m 0.75,0 h 0.75 m 2.25,0 h 1.5 m 3,0 h 0.75 m 0.75,0 h 2.25 m 0.75,0 h 0.75 M 5,9.125 h 0.75 m 3.75,0 h 0.75 m 1.5,0 h 1.5 m 1.5,0 h 0.75 m 0.75,0 h 1.5 m 0.75,0 h 0.75 m 3.75,0 h 0.75 M 5,9.875 h 5.25 m 0.75,0 h 0.75 m 0.75,0 h 0.75 m 0.75,0 h 0.75 m 0.75,0 h 0.75 m 0.75,0 h 0.75 m 0.75,0 h 5.25 m -12,0.75 h 0.75 m 1.5,0 h 1.5 M 5,11.375 h 1.5 m 2.25,0 H 11 m 0.75,0 h 1.5 m 1.5,0 h 3 m 2.25,0 h 1.5 M 5,12.125 h 0.75 m 1.5,0 H 9.5 m 0.75,0 h 1.5 m 0.75,0 h 0.75 m 0.75,0 h 0.75 m 2.25,0 h 1.5 m 2.25,0 h 1.5 m -15,0.75 H 8 m 1.5,0 h 0.75 m 1.5,0 h 0.75 m 1.5,0 h 2.25 m 0.75,0 h 0.75 m 0.75,0 h 2.25 m 1.5,0 h 1.5 m -18,0.75 H 9.5 m 3,0 h 0.75 m 0.75,0 h 0.75 m 2.25,0 h 0.75 m 1.5,0 H 21.5 M 5,14.375 h 0.75 m 3,0 h 1.5 m 1.5,0 h 6.75 m 0.75,0 H 23 m -18,0.75 h 1.5 m 0.75,0 H 8 m 0.75,0 H 9.5 m 0.75,0 h 1.5 m 0.75,0 h 0.75 m 2.25,0 h 0.75 m 0.75,0 h 4.5 M 5,15.875 h 0.75 m 0.75,0 h 0.75 m 0.75,0 h 0.75 m 0.75,0 H 11 m 2.25,0 h 1.5 m 0.75,0 h 2.25 m 3,0 h 1.5 M 5,16.625 h 0.75 m 0.75,0 h 0.75 m 3.75,0 h 1.5 m 0.75,0 H 14 m 3,0 h 1.5 m 3,0 h 2.25 M 5,17.375 h 0.75 m 3,0 H 11 m 0.75,0 h 1.5 m 3,0 h 4.5 m 0.75,0 h 0.75 m 0.75,0 h 0.75 M 11,18.125 h 1.5 m 1.5,0 h 0.75 m 0.75,0 h 2.25 m 2.25,0 h 3 m -18,0.75 h 5.25 m 0.75,0 h 4.5 m 0.75,0 h 1.5 m 0.75,0 h 0.75 m 0.75,0 h 0.75 m 0.75,0 h 2.25 M 5,19.625 h 0.75 m 3.75,0 h 0.75 m 0.75,0 h 0.75 m 1.5,0 h 1.5 m 0.75,0 h 0.75 m 0.75,0 h 0.75 m 2.25,0 h 3.75 M 5,20.375 h 0.75 m 0.75,0 h 2.25 m 0.75,0 h 0.75 m 2.25,0 h 0.75 m 1.5,0 h 1.5 m 0.75,0 h 3.75 m 1.5,0 h 1.5 M 5,21.125 h 0.75 m 0.75,0 h 2.25 m 0.75,0 h 0.75 m 3,0 h 2.25 m 2.25,0 h 1.5 m 0.75,0 h 3.75 M 5,21.875 h 0.75 m 0.75,0 h 2.25 m 0.75,0 h 0.75 m 2.25,0 h 2.25 m 3.75,0 H 20 m 0.75,0 h 0.75 m 1.5,0 h 0.75 M 5,22.625 h 0.75 m 3.75,0 h 0.75 m 0.75,0 h 0.75 m 2.25,0 h 0.75 m 0.75,0 h 6 M 5,23.375 h 5.25 m 0.75,0 h 3 m 0.75,0 h 3 m 0.75,0 h 0.75 m 1.5,0 h 0.75 m 0.75,0 h 1.5"
     style="fill-rule:nonzero;stroke:#000000;stroke-width:0.75px"
     id="path2" /><rect
     x="2"
     y="2"
     width="24.75"
     height="3"
     style="fill:#ffff00"
     id="rect4" /><rect
     x="2"
     y="23.75"
     width="24.75"
     height="3"
     style="fill:#ffff00"
     id="rect6" /><rect
     x="23.75"
     y="5"
     width="3"
     height="18.75"
     style="fill:#ffff00"
     id="rect8" /><rect
     x="2"
     y="5"
     width="3"
     height="18.75"
     style="fill:#ffff00"
     id="rect10" /><rect
     x="26.75"
     y="5"
     width="3.75"
     height="18.75"
     style="fill:#00ff00"
     id="rect12" /><rect
     x="26.75"
     y="5"
     width="3.75"
     height="3.75"
     style="fill:#ff0000"
     id="rect14" /><rect
     x="26.75"
     y="9.5"
     width="3.75"
     height="3.75"
     style="fill:#ff0000"
     id="rect16" /><rect
     x="26.75"
     y="14"
     width="3.75"
     height="3.75"
     style="fill:#ff0000"
     id="rect18" /><rect
     x="26.75"
     y="18.5"
     width="3.75"
     height="3.75"
     style="fill:#ff0000"
     id="rect20" /><path
     d="m 42.5,5.375 h 5.25 m 1.5,0 h 3 m 0.75,0 h 2.25 m 0.75,0 h 5.25 M 42.5,6.125 h 0.75 m 3.75,0 h 0.75 m 8.25,0 h 0.75 m 3.75,0 h 0.75 M 42.5,6.875 h 0.75 m 0.75,0 h 2.25 m 0.75,0 h 0.75 m 1.5,0 H 50 m 1.5,0 h 0.75 m 0.75,0 h 2.25 m 0.75,0 h 0.75 m 0.75,0 h 2.25 m 0.75,0 h 0.75 M 42.5,7.625 h 0.75 m 0.75,0 h 2.25 m 0.75,0 h 0.75 m 0.75,0 h 0.75 m 0.75,0 h 0.75 m 3.75,0 h 0.75 m 0.75,0 h 0.75 m 0.75,0 h 2.25 m 0.75,0 h 0.75 M 42.5,8.375 h 0.75 m 0.75,0 h 2.25 m 0.75,0 h 0.75 m 0.75,0 h 0.75 m 2.25,0 H 53 m 3,0 h 0.75 m 0.75,0 h 2.25 m 0.75,0 h 0.75 M 42.5,9.125 h 0.75 m 3.75,0 h 0.75 m 1.5,0 h 1.5 m 1.5,0 H 53 m 0.75,0 h 1.5 m 0.75,0 h 0.75 m 3.75,0 h 0.75 M 42.5,9.875 h 5.25 m 0.75,0 h 0.75 m 0.75,0 h 0.75 m 0.75,0 h 0.75 m 0.75,0 h 0.75 m 0.75,0 h 0.75 m 0.75,0 h 5.25 m -12,0.75 H 50 m 1.5,0 H 53 m -10.5,0.75 H 44 m 2.25,0 h 2.25 m 0.75,0 h 1.5 m 1.5,0 h 3 m 2.25,0 H 59 m -16.5,0.75 h 0.75 m 1.5,0 H 47 m 0.75,0 h 1.5 m 0.75,0 h 0.75 m 0.75,0 h 0.75 m 2.25,0 H 56 m 2.25,0 h 1.5 m -15,0.75 h 0.75 m 1.5,0 h 0.75 m 1.5,0 H 50 m 1.5,0 h 2.25 m 0.75,0 h 0.75 m 0.75,0 h 2.25 m 1.5,0 h 1.5 m -18,0.75 H 47 m 3,0 h 0.75 m 0.75,0 h 0.75 m 2.25,0 h 0.75 m 1.5,0 H 59 m -16.5,0.75 h 0.75 m 3,0 h 1.5 m 1.5,0 H 56 m 0.75,0 h 3.75 m -18,0.75 H 44 m 0.75,0 h 0.75 m 0.75,0 H 47 m 0.75,0 h 1.5 m 0.75,0 h 0.75 m 2.25,0 h 0.75 m 0.75,0 H 59 m -16.5,0.75 h 0.75 m 0.75,0 h 0.75 m 0.75,0 h 0.75 m 0.75,0 h 1.5 m 2.25,0 h 1.5 m 0.75,0 h 2.25 m 3,0 h 1.5 m -17.25,0.75 h 0.75 m 0.75,0 h 0.75 m 3.75,0 H 50 m 0.75,0 h 0.75 m 3,0 H 56 m 3,0 h 2.25 m -18.75,0.75 h 0.75 m 3,0 h 2.25 m 0.75,0 h 1.5 m 3,0 h 4.5 m 0.75,0 h 0.75 m 0.75,0 h 0.75 M 48.5,18.125 H 50 m 1.5,0 h 0.75 m 0.75,0 h 2.25 m 2.25,0 h 3 m -18,0.75 h 5.25 m 0.75,0 H 53 m 0.75,0 h 1.5 m 0.75,0 h 0.75 m 0.75,0 h 0.75 m 0.75,0 h 2.25 m -18.75,0.75 h 0.75 m 3.75,0 h 0.75 m 0.75,0 h 0.75 m 1.5,0 h 1.5 m 0.75,0 h 0.75 m 0.75,0 h 0.75 m 2.25,0 h 3.75 m -18.75,0.75 h 0.75 m 0.75,0 h 2.25 m 0.75,0 h 0.75 m 2.25,0 h 0.75 m 1.5,0 h 1.5 m 0.75,0 h 3.75 m 1.5,0 h 1.5 m -18.75,0.75 h 0.75 m 0.75,0 h 2.25 m 0.75,0 h 0.75 m 3,0 H 53 m 2.25,0 h 1.5 m 0.75,0 h 3.75 m -18.75,0.75 h 0.75 m 0.75,0 h 2.25 m 0.75,0 h 0.75 m 2.25,0 h 2.25 m 3.75,0 h 1.5 m 0.75,0 H 59 m 1.5,0 h 0.75 m -18.75,0.75 h 0.75 m 3.75,0 h 0.75 m 0.75,0 h 0.75 m 2.25,0 h 0.75 m 0.75,0 h 6 m -16.5,0.75 h 5.25 m 0.75,0 h 3 m 0.75,0 h 3 m 0.75,0 h 0.75 m 1.5,0 H 59 m 0.75,0 h 1.5"
     style="fill-rule:nonzero;stroke:#000000;stroke-width:0.75px"
     id="path22" /><rect
     x="39.5"
     y="2"
     width="24.75"
     height="3"
     style="fill:#ffff00"
     id="rect24" /><rect
     x="39.5"
     y="23.75"
     width="24.75"
     height="3"
     style="fill:#ffff00"
     id="rect26" /><rect
     x="61.25"
     y="5"
     width="3"
     height="18.75"
     style="fill:#ffff00"
     id="rect28" /><rect
     x="39.5"
     y="5"
     width="3"
     height="18.75"
     style="fill:#ffff00"
     id="rect30" /><rect
     x="42.5"
     y="26.75"
     width="18.75"
     height="3.75"
     style="fill:#00ff00"
     id="rect32" /><rect
     x="42.5"
     y="26.75"
     width="3.75"
     height="3.75"
     style="fill:#0000ff"
     id="rect34" /><rect
     x="47"
     y="26.75"
     width="3.75"
     height="3.75"
     style="fill:#0000ff"
     id="rect36" /><rect
     x="51.5"
     y="26.75"
     width="3.75"
     height="3.75"
     style="fill:#0000ff"
     id="rect38" /><rect
     x="56"
     y="26.75"
     width="3.75"
     height="3.75"
     style="fill:#0000ff"
     id="rect40" /></svg>
