<?xml version="1.0" encoding="UTF-8" standalone="no"?><!DOCTYPE svg PUBLIC "-//W3C//DTD SVG 1.1//EN" "http://www.w3.org/Graphics/SVG/1.1/DTD/svg11.dtd"><svg width="100%" height="100%" viewBox="0 0 63 29" version="1.1" xmlns="http://www.w3.org/2000/svg" xmlns:xlink="http://www.w3.org/1999/xlink" xml:space="preserve" xmlns:serif="http://www.serif.com/" style="fill-rule:evenodd;clip-rule:evenodd;"><path d="M3,3.375l5.25,0m1.5,0l3,0m0.75,0l2.25,0m0.75,0l5.25,0m-18.75,0.75l0.75,0m3.75,0l0.75,0m8.25,0l0.75,0m3.75,0l0.75,0m-18.75,0.75l0.75,0m0.75,0l2.25,0m0.75,0l0.75,0m1.5,0l0.75,0m1.5,0l0.75,0m0.75,0l2.25,0m0.75,0l0.75,0m0.75,0l2.25,0m0.75,0l0.75,0m-18.75,0.75l0.75,0m0.75,0l2.25,0m0.75,0l0.75,0m0.75,0l0.75,0m0.75,0l0.75,0m3.75,0l0.75,0m0.75,0l0.75,0m0.75,0l2.25,0m0.75,0l0.75,0m-18.75,0.75l0.75,0m0.75,0l2.25,0m0.75,0l0.75,0m0.75,0l0.75,0m2.25,0l1.5,0m3,0l0.75,0m0.75,0l2.25,0m0.75,0l0.75,0m-18.75,0.75l0.75,0m3.75,0l0.75,0m1.5,0l1.5,0m1.5,0l0.75,0m0.75,0l1.5,0m0.75,0l0.75,0m3.75,0l0.75,0m-18.75,0.75l5.25,0m0.75,0l0.75,0m0.75,0l0.75,0m0.75,0l0.75,0m0.75,0l0.75,0m0.75,0l0.75,0m0.75,0l5.25,0m-12,0.75l0.75,0m1.5,0l1.5,0m-10.5,0.75l1.5,0m2.25,0l2.25,0m0.75,0l1.5,0m1.5,0l3,0m2.25,0l1.5,0m-16.5,0.75l0.75,0m1.5,0l2.25,0m0.75,0l1.5,0m0.75,0l0.75,0m0.75,0l0.75,0m2.25,0l1.5,0m2.25,0l1.5,0m-15,0.75l0.75,0m1.5,0l0.75,0m1.5,0l0.75,0m1.5,0l2.25,0m0.75,0l0.75,0m0.75,0l2.25,0m1.5,0l1.5,0m-18,0.75l3.75,0m3,0l0.75,0m0.75,0l0.75,0m2.25,0l0.75,0m1.5,0l2.25,0m-16.5,0.75l0.75,0m3,0l1.5,0m1.5,0l6.75,0m0.75,0l3.75,0m-18,0.75l1.5,0m0.75,0l0.75,0m0.75,0l0.75,0m0.75,0l1.5,0m0.75,0l0.75,0m2.25,0l0.75,0m0.75,0l4.5,0m-16.5,0.75l0.75,0m0.75,0l0.75,0m0.75,0l0.75,0m0.75,0l1.5,0m2.25,0l1.5,0m0.75,0l2.25,0m3,0l1.5,0m-17.25,0.75l0.75,0m0.75,0l0.75,0m3.75,0l1.5,0m0.75,0l0.75,0m3,0l1.5,0m3,0l2.25,0m-18.75,0.75l0.75,0m3,0l2.25,0m0.75,0l1.5,0m3,0l4.5,0m0.75,0l0.75,0m0.75,0l0.75,0m-12.75,0.75l1.5,0m1.5,0l0.75,0m0.75,0l2.25,0m2.25,0l3,0m-18,0.75l5.25,0m0.75,0l4.5,0m0.75,0l1.5,0m0.75,0l0.75,0m0.75,0l0.75,0m0.75,0l2.25,0m-18.75,0.75l0.75,0m3.75,0l0.75,0m0.75,0l0.75,0m1.5,0l1.5,0m0.75,0l0.75,0m0.75,0l0.75,0m2.25,0l3.75,0m-18.75,0.75l0.75,0m0.75,0l2.25,0m0.75,0l0.75,0m2.25,0l0.75,0m1.5,0l1.5,0m0.75,0l3.75,0m1.5,0l1.5,0m-18.75,0.75l0.75,0m0.75,0l2.25,0m0.75,0l0.75,0m3,0l2.25,0m2.25,0l1.5,0m0.75,0l3.75,0m-18.75,0.75l0.75,0m0.75,0l2.25,0m0.75,0l0.75,0m2.25,0l2.25,0m3.75,0l1.5,0m0.75,0l0.75,0m1.5,0l0.75,0m-18.75,0.75l0.75,0m3.75,0l0.75,0m0.75,0l0.75,0m2.25,0l0.75,0m0.75,0l6,0m-16.5,0.75l5.25,0m0.75,0l3,0m0.75,0l3,0m0.75,0l0.75,0m1.5,0l0.75,0m0.75,0l1.5,0" style="fill-rule:nonzero;stroke:#000;stroke-width:0.75px;"/><rect x="0" y="0" width="24.75" height="3" style="fill:#ff0;"/><rect x="0" y="21.75" width="24.75" height="3" style="fill:#ff0;"/><rect x="21.75" y="3" width="3" height="18.75" style="fill:#ff0;"/><rect x="0" y="3" width="3" height="18.75" style="fill:#ff0;"/><rect x="24.75" y="3" width="3.75" height="18.75" style="fill:#0f0;"/><rect x="24.75" y="3" width="3.75" height="3.75" style="fill:#f00;"/><rect x="24.75" y="7.5" width="3.75" height="3.75" style="fill:#f00;"/><rect x="24.75" y="12" width="3.75" height="3.75" style="fill:#f00;"/><rect x="24.75" y="16.5" width="3.75" height="3.75" style="fill:#f00;"/><path d="M40.5,3.375l5.25,0m1.5,0l3,0m0.75,0l2.25,0m0.75,0l5.25,0m-18.75,0.75l0.75,0m3.75,0l0.75,0m8.25,0l0.75,0m3.75,0l0.75,0m-18.75,0.75l0.75,0m0.75,0l2.25,0m0.75,0l0.75,0m1.5,0l0.75,0m1.5,0l0.75,0m0.75,0l2.25,0m0.75,0l0.75,0m0.75,0l2.25,0m0.75,0l0.75,0m-18.75,0.75l0.75,0m0.75,0l2.25,0m0.75,0l0.75,0m0.75,0l0.75,0m0.75,0l0.75,0m3.75,0l0.75,0m0.75,0l0.75,0m0.75,0l2.25,0m0.75,0l0.75,0m-18.75,0.75l0.75,0m0.75,0l2.25,0m0.75,0l0.75,0m0.75,0l0.75,0m2.25,0l1.5,0m3,0l0.75,0m0.75,0l2.25,0m0.75,0l0.75,0m-18.75,0.75l0.75,0m3.75,0l0.75,0m1.5,0l1.5,0m1.5,0l0.75,0m0.75,0l1.5,0m0.75,0l0.75,0m3.75,0l0.75,0m-18.75,0.75l5.25,0m0.75,0l0.75,0m0.75,0l0.75,0m0.75,0l0.75,0m0.75,0l0.75,0m0.75,0l0.75,0m0.75,0l5.25,0m-12,0.75l0.75,0m1.5,0l1.5,0m-10.5,0.75l1.5,0m2.25,0l2.25,0m0.75,0l1.5,0m1.5,0l3,0m2.25,0l1.5,0m-16.5,0.75l0.75,0m1.5,0l2.25,0m0.75,0l1.5,0m0.75,0l0.75,0m0.75,0l0.75,0m2.25,0l1.5,0m2.25,0l1.5,0m-15,0.75l0.75,0m1.5,0l0.75,0m1.5,0l0.75,0m1.5,0l2.25,0m0.75,0l0.75,0m0.75,0l2.25,0m1.5,0l1.5,0m-18,0.75l3.75,0m3,0l0.75,0m0.75,0l0.75,0m2.25,0l0.75,0m1.5,0l2.25,0m-16.5,0.75l0.75,0m3,0l1.5,0m1.5,0l6.75,0m0.75,0l3.75,0m-18,0.75l1.5,0m0.75,0l0.75,0m0.75,0l0.75,0m0.75,0l1.5,0m0.75,0l0.75,0m2.25,0l0.75,0m0.75,0l4.5,0m-16.5,0.75l0.75,0m0.75,0l0.75,0m0.75,0l0.75,0m0.75,0l1.5,0m2.25,0l1.5,0m0.75,0l2.25,0m3,0l1.5,0m-17.25,0.75l0.75,0m0.75,0l0.75,0m3.75,0l1.5,0m0.75,0l0.75,0m3,0l1.5,0m3,0l2.25,0m-18.75,0.75l0.75,0m3,0l2.25,0m0.75,0l1.5,0m3,0l4.5,0m0.75,0l0.75,0m0.75,0l0.75,0m-12.75,0.75l1.5,0m1.5,0l0.75,0m0.75,0l2.25,0m2.25,0l3,0m-18,0.75l5.25,0m0.75,0l4.5,0m0.75,0l1.5,0m0.75,0l0.75,0m0.75,0l0.75,0m0.75,0l2.25,0m-18.75,0.75l0.75,0m3.75,0l0.75,0m0.75,0l0.75,0m1.5,0l1.5,0m0.75,0l0.75,0m0.75,0l0.75,0m2.25,0l3.75,0m-18.75,0.75l0.75,0m0.75,0l2.25,0m0.75,0l0.75,0m2.25,0l0.75,0m1.5,0l1.5,0m0.75,0l3.75,0m1.5,0l1.5,0m-18.75,0.75l0.75,0m0.75,0l2.25,0m0.75,0l0.75,0m3,0l2.25,0m2.25,0l1.5,0m0.75,0l3.75,0m-18.75,0.75l0.75,0m0.75,0l2.25,0m0.75,0l0.75,0m2.25,0l2.25,0m3.75,0l1.5,0m0.75,0l0.75,0m1.5,0l0.75,0m-18.75,0.75l0.75,0m3.75,0l0.75,0m0.75,0l0.75,0m2.25,0l0.75,0m0.75,0l6,0m-16.5,0.75l5.25,0m0.75,0l3,0m0.75,0l3,0m0.75,0l0.75,0m1.5,0l0.75,0m0.75,0l1.5,0" style="fill-rule:nonzero;stroke:#000;stroke-width:0.75px;"/><rect x="37.5" y="0" width="24.75" height="3" style="fill:#ff0;"/><rect x="37.5" y="21.75" width="24.75" height="3" style="fill:#ff0;"/><rect x="59.25" y="3" width="3" height="18.75" style="fill:#ff0;"/><rect x="37.5" y="3" width="3" height="18.75" style="fill:#ff0;"/><rect x="40.5" y="24.75" width="18.75" height="3.75" style="fill:#0f0;"/><rect x="40.5" y="24.75" width="3.75" height="3.75" style="fill:#00f;"/><rect x="45" y="24.75" width="3.75" height="3.75" style="fill:#00f;"/><rect x="49.5" y="24.75" width="3.75" height="3.75" style="fill:#00f;"/><rect x="54" y="24.75" width="3.75" height="3.75" style="fill:#00f;"/></svg>