<?xml version="1.0" encoding="utf-8"?>
<svg xmlns="http://www.w3.org/2000/svg" width="290" height="250" class="segno">
  <rect width="290" height="250" fill="white" />
  <path transform="scale(5.18)" class="qrline" stroke="#000" d="M9 9.5h7m1 0h1m2 0h2m2 0h2m1 0h1m3 0h7m4 0h4m-37 1h1m5 0h1m1 0h2m2 0h1m1 0h2m6 0h1m5 0h1m4 0h1m3 0h1m-38 1h1m1 0h3m1 0h1m2 0h1m1 0h5m1 0h1m2 0h1m1 0h1m1 0h3m1 0h1m4 0h4m-37 1h1m1 0h3m1 0h1m1 0h1m10 0h1m2 0h1m1 0h3m1 0h1m4 0h1m-34 1h1m1 0h3m1 0h1m5 0h2m3 0h1m1 0h2m1 0h1m1 0h3m1 0h1m4 0h1m-34 1h1m5 0h1m3 0h2m2 0h1m1 0h2m1 0h1m2 0h1m5 0h1m-29 1h7m1 0h1m1 0h1m1 0h1m1 0h1m1 0h1m1 0h1m1 0h1m1 0h7m5 0h3m-29 1h2m1 0h1m1 0h2m3 0h1m1 0h1m12 0h1m3 0h1m-38 1h1m1 0h2m1 0h3m5 0h2m2 0h4m1 0h1m2 0h1m1 0h2m4 0h5m-37 1h3m1 0h1m1 0h4m1 0h1m2 0h1m4 0h1m1 0h1m1 0h2m1 0h1m5 0h1m3 0h1m-38 1h3m1 0h3m4 0h2m1 0h1m1 0h1m2 0h1m1 0h1m5 0h1m5 0h1m3 0h1m-38 1h1m2 0h1m1 0h1m4 0h2m1 0h2m1 0h2m1 0h1m3 0h1m1 0h1m1 0h2m-29 1h2m1 0h1m2 0h1m1 0h2m2 0h1m2 0h3m1 0h1m1 0h2m1 0h3m7 0h4m-37 1h1m2 0h1m2 0h1m1 0h1m3 0h1m5 0h1m1 0h1m3 0h1m2 0h1m4 0h1m-34 1h1m2 0h1m1 0h3m4 0h1m1 0h1m3 0h3m1 0h3m2 0h2m4 0h1m-30 1h1m2 0h2m1 0h2m1 0h1m1 0h1m1 0h1m7 0h4m4 0h1m-32 1h1m1 0h1m1 0h2m2 0h1m1 0h1m4 0h1m1 0h3m3 0h2m1 0h1m5 0h4m-37 1h5m2 0h1m1 0h1m1 0h2m2 0h1m3 0h1m1 0h1m1 0h1m-25 1h1m1 0h6m1 0h1m1 0h2m2 0h1m2 0h3m6 0h2m-27 1h3m2 0h1m1 0h3m4 0h2m2 0h2m1 0h1m1 0h3m-27 1h3m1 0h2m1 0h1m1 0h2m1 0h1m1 0h2m3 0h7m1 0h1m6 0h1m-28 1h3m2 0h2m1 0h1m1 0h1m1 0h1m3 0h3m1 0h1m-29 1h7m1 0h1m2 0h1m1 0h1m2 0h1m1 0h1m1 0h1m1 0h1m1 0h2m-26 1h1m5 0h1m1 0h2m6 0h5m3 0h1m2 0h2m-29 1h1m1 0h3m1 0h1m2 0h2m3 0h2m2 0h1m1 0h5m2 0h2m-29 1h1m1 0h3m1 0h1m1 0h1m1 0h3m1 0h2m1 0h2m1 0h1m1 0h1m1 0h1m2 0h1m-28 1h1m1 0h3m1 0h1m1 0h2m2 0h1m1 0h1m6 0h2m1 0h2m2 0h1m6 0h1m-36 1h1m5 0h1m2 0h1m2 0h1m1 0h1m5 0h2m1 0h1m1 0h4m-29 1h7m1 0h1m1 0h1m2 0h3m1 0h1m3 0h1m2 0h1m1 0h1"/>
</svg>
