<?xml version="1.0" encoding="UTF-8" standalone="no"?><!DOCTYPE svg PUBLIC "-//W3C//DTD SVG 1.1//EN" "http://www.w3.org/Graphics/SVG/1.1/DTD/svg11.dtd"><svg width="190" height="40" viewBox="0 0 19 4" version="1.1" xmlns="http://www.w3.org/2000/svg" xmlns:xlink="http://www.w3.org/1999/xlink" xml:space="preserve" xmlns:serif="http://www.serif.com/" style="fill-rule:evenodd;clip-rule:evenodd;stroke-linejoin:round;stroke-miterlimit:2;"><rect x="0" y="0" width="18.75" height="3.75" style="fill:#0f0;"/><rect x="0" y="0" width="3.75" height="3.75" style="fill:#00f;"/><rect x="4.5" y="0" width="3.75" height="3.75" style="fill:#00f;"/><rect x="9" y="0" width="3.75" height="3.75" style="fill:#00f;"/><rect x="13.5" y="0" width="3.75" height="3.75" style="fill:#00f;"/><rect x="0" y="0" width="0.75" height="3.75"/><rect x="0" y="0" width="3" height="0.75"/><rect x="0" y="1.5" width="3" height="0.75"/><rect x="3" y="0.75" width="0.75" height="0.75"/><rect x="4.5" y="0.75" width="0.75" height="3"/><rect x="7.5" y="0.75" width="0.75" height="3"/><rect x="5.25" y="0" width="2.25" height="0.75"/><rect x="4.5" y="1.5" width="3.75" height="0.75"/><rect x="9.75" y="0" width="3" height="0.75"/><rect x="9.75" y="3" width="3" height="0.75"/><rect x="9" y="0.75" width="0.75" height="2.25"/><rect x="15" y="1.5" width="0.75" height="0.75"/></svg>
