<?xml version="1.0" encoding="UTF-8" standalone="no"?>
<svg
   width="197.5"
   height="47.5"
   viewBox="0 0 19.75 4.75"
   version="1.1"
   xml:space="preserve"
   style="clip-rule:evenodd;fill-rule:evenodd;stroke-linejoin:round;stroke-miterlimit:2"
   id="svg36"
   xmlns="http://www.w3.org/2000/svg"
   xmlns:svg="http://www.w3.org/2000/svg"><defs
     id="defs40" /><rect
     style="fill:#ffffff;stroke-width:0.0994409"
     id="rect64"
     width="19.75"
     height="4.75"
     x="0"
     y="0" /><rect
     x="0.5"
     y="0.5"
     width="18.75"
     height="3.75"
     style="fill:#00ff00"
     id="rect2" /><rect
     x="0.5"
     y="0.5"
     width="3.75"
     height="3.75"
     style="fill:#0000ff"
     id="rect4" /><rect
     x="5"
     y="0.5"
     width="3.75"
     height="3.75"
     style="fill:#0000ff"
     id="rect6" /><rect
     x="9.5"
     y="0.5"
     width="3.75"
     height="3.75"
     style="fill:#0000ff"
     id="rect8" /><rect
     x="14"
     y="0.5"
     width="3.75"
     height="3.75"
     style="fill:#0000ff"
     id="rect10" /><rect
     x="0.5"
     y="0.5"
     width="0.75"
     height="3.75"
     id="rect12" /><rect
     x="0.5"
     y="0.5"
     width="3"
     height="0.75"
     id="rect14" /><rect
     x="0.5"
     y="2"
     width="3"
     height="0.75"
     id="rect16" /><rect
     x="3.5"
     y="1.25"
     width="0.75"
     height="0.75"
     id="rect18" /><rect
     x="5"
     y="1.25"
     width="0.75"
     height="3"
     id="rect20" /><rect
     x="8"
     y="1.25"
     width="0.75"
     height="3"
     id="rect22" /><rect
     x="5.75"
     y="0.5"
     width="2.25"
     height="0.75"
     id="rect24" /><rect
     x="5"
     y="2"
     width="3.75"
     height="0.75"
     id="rect26" /><rect
     x="10.25"
     y="0.5"
     width="3"
     height="0.75"
     id="rect28" /><rect
     x="10.25"
     y="3.5"
     width="3"
     height="0.75"
     id="rect30" /><rect
     x="9.5"
     y="1.25"
     width="0.75"
     height="2.25"
     id="rect32" /><rect
     x="15.5"
     y="2"
     width="0.75"
     height="0.75"
     id="rect34" /></svg>
